# xmcd
#
# Track frame offsets:
#	150
#	14327
#	27988
#	46788
#	63073
#	79003
#	97366
#	112187
#	129782
#	142835
#	160524
#	174421
#
# Disc length: 2546 seconds
#
# Revision: 4
# Processed by: cddbd v1.4PL0 Copyright (c) Steve Scherf et al.
# Submitted via: MusicWizard 6.0.2
#
DISCID=8d09f00c
DTITLE=Adkins, Trace - More...
DYEAR=1999
DGENRE=Country
TTITLE0=More
TTITLE1=I'm Gonna Love You Anyway
TTITLE2=She's Still There
TTITLE3=Someday
TTITLE4=Can I Want Your Love
TTITLE5=Don't Lie
TTITLE6=A Working Man's Wage
TTITLE7=The Night He Can't Remember
TTITLE8=I Can Dig It
TTITLE9=Everything Takes Me Back
TTITLE10=All Hat, No Cattle
TTITLE11=Every Other Friday At Five
EXTD=YEAR: 1999
EXTT0=
EXTT1=
EXTT2=
EXTT3=
EXTT4=
EXTT5=
EXTT6=
EXTT7=
EXTT8=
EXTT9=
EXTT10=
EXTT11=
PLAYORDER=
